<svg width="12" height="14" viewBox="0 0 12 14" fill="none" xmlns="http://www.w3.org/2000/svg">
<path fill-rule="evenodd" clip-rule="evenodd" d="M1.33341 12.3333H10.6667C10.8436 12.3333 11.0131 12.4036 11.1382 12.5286C11.2632 12.6536 11.3334 12.8232 11.3334 13C11.3334 13.1768 11.2632 13.3464 11.1382 13.4714C11.0131 13.5964 10.8436 13.6666 10.6667 13.6666H1.33341C1.1566 13.6666 0.987035 13.5964 0.86201 13.4714C0.736986 13.3464 0.666748 13.1768 0.666748 13C0.666748 12.8232 0.736986 12.6536 0.86201 12.5286C0.987035 12.4036 1.1566 12.3333 1.33341 12.3333ZM0.666748 8.99998L7.33342 2.33331L9.33342 4.33331L2.66675 11H0.666748V8.99998ZM8.00008 1.66665L9.33342 0.333313L11.3334 2.33331L9.99942 3.66731L8.00008 1.66665Z" fill="black"/>
</svg>
